<svg fill="#fff" height="512" viewBox="0 0 60 61" width="512" xmlns="http://www.w3.org/2000/svg"><path id="Shape" d="m57 20c-4.34 0-4.31-.06-5 .18v-15.18c0-2.76142375-2.2385763-5-5-5h-34c-2.7614237 0-5 2.23857625-5 5v15.18c-.69-.24-.61-.18-5-.18-1.65685425 0-3 1.3431458-3 3v27c.00415131.7634356.44256377 1.4579119 1.13 1.79l1.2 6.4c.35016598 1.1586872 1.46401299 1.913767 2.67 1.81 1.20598701.103767 2.31983402-.6513128 2.67-1.81l1.2-6.4c.44399372-.200426.79957403-.5560063 1-1 .8688478.7584142 1.9769391 1.1867818 3.13 1.21h34c1.1665176-.0030915 2.2938278-.4214016 3.18-1.18.200426.4439937.5560063.799574 1 1l1.2 6.41c.4399767 1.0881402 1.4962758 1.8004167 2.67 1.8004167s2.2300233-.7122765 2.67-1.8004167l1.2-6.4c.6810777-.3524909 1.1006245-1.0633897 1.08-1.83v-27c0-1.6568542-1.3431458-3-3-3zm-4 2h4c.5522847 0 1 .4477153 1 1v27h-6v-27c0-.5522847.4477153-1 1-1zm-32.13 5c23.6 0 25-.6 28 3h-37.72c1.6-1.94 2.85-3 9.72-3zm-10.87 5h40v10h-40zm0-27c0-1.65685425 1.3431458-3 3-3h34c1.6568542 0 3 1.34314575 3 3v23.28c-1.34-1.51-2.75-2.55-6-3 1.63-2.51 2-7.62 2-14.27 0-.5522847-.4477153-1-1-1s-1 .4477153-1 1c0 3.46 0 14-3 14-12.44 0-21.7 0-21.85 0-.0495753-.0080343-.099797-.0113824-.15-.01-3 0-3-10.54-3-14 0-.5522847-.4477153-1-1-1s-1 .4477153-1 1c0 6.65.41 11.76 2 14.27-3.29.46-4.7 1.5-6 3zm-8 18c0-.5522847.44771525-1 1-1h4c.55228475 0 1 .4477153 1 1v27h-6zm3.72 34.77c-.200668.1679084-.45915243.2504798-.72.23-.24363095.0006341-.48379779-.0576922-.7-.17l-1.09-5.83h3.59zm41.28-7.77h-34c-1.6568542 0-3-1.3431458-3-3v-3h40v3c0 1.6568542-1.3431458 3-3 3zm8.72 7.77c-.200668.1679084-.4591524.2504798-.72.23-.243631.0006341-.4837978-.0576922-.7-.17l-1.09-5.83h3.59z"/></svg>