<?xml version="1.0"?>
<svg xmlns="http://www.w3.org/2000/svg" id="Outline" viewBox="0 0 64 64" width="512" height="512" fill="#f7392d"><path d="M19,23.816V26h2V23.816A3,3,0,0,0,22.816,22H25V20H22.816A3,3,0,0,0,21,18.184V16H19v2.184A3,3,0,0,0,17.184,20H15v2h2.184A3,3,0,0,0,19,23.816ZM20,20a1,1,0,1,1-1,1A1,1,0,0,1,20,20Z"/><path d="M33,23.816V26h2V23.816A3,3,0,0,0,36.816,22H39V20H36.816A3,3,0,0,0,35,18.184V16H33v2.184A3,3,0,0,0,31.184,20H29v2h2.184A3,3,0,0,0,33,23.816ZM34,20a1,1,0,1,1-1,1A1,1,0,0,1,34,20Z"/><path d="M19,34.816V37h2V34.816A3,3,0,0,0,22.816,33H25V31H22.816A3,3,0,0,0,21,29.184V27H19v2.184A3,3,0,0,0,17.184,31H15v2h2.184A3,3,0,0,0,19,34.816ZM20,31a1,1,0,1,1-1,1A1,1,0,0,1,20,31Z"/><path d="M33,34.816V37h2V34.816A3,3,0,0,0,36.816,33H39V31H36.816A3,3,0,0,0,35,29.184V27H33v2.184A3,3,0,0,0,31.184,31H29v2h2.184A3,3,0,0,0,33,34.816ZM34,31a1,1,0,1,1-1,1A1,1,0,0,1,34,31Z"/><path d="M11,60H62V58H61V55a1,1,0,0,0-1-1H56V13h5a1,1,0,0,0,.992-.876l1-8A1,1,0,0,0,62,3H56V2H54V3H48a1,1,0,0,0-.992,1.124l1,8A1,1,0,0,0,49,13h5V54H50a1,1,0,0,0-1,1v3H46.847l-.837-5.021L47.9,37.9A4,4,0,0,0,47,30h-.875l.071-.606a19.328,19.328,0,1,0-38.392,0L7.875,30H7a4,4,0,0,0-.9,7.9L7.99,52.979,7.153,58H2v2h9ZM49.133,5H60.867l-.75,6H49.883ZM39.382,54l2,4H12.618l2-4ZM51,56h8v2H51Zm-7.382,2-2-4h2.535l.666,4ZM9.79,29.16a17.329,17.329,0,1,1,34.42,0l-.1.84h-.484a4.013,4.013,0,0,0-3.965,3.471L38.925,39H15.075l-.737-5.528A4.013,4.013,0,0,0,10.373,30H9.889ZM38,45H16V41H38ZM7,36a2,2,0,0,1,0-4h3.373a2.005,2.005,0,0,1,1.982,1.736l1.654,12.4a.909.909,0,0,0,.047.145.873.873,0,0,0,.05.152.961.961,0,0,0,.121.18.875.875,0,0,0,.093.116,1.01,1.01,0,0,0,.2.133,1.127,1.127,0,0,0,.111.067A.989.989,0,0,0,15,47H39a.989.989,0,0,0,.373-.075.97.97,0,0,0,.111-.068.936.936,0,0,0,.2-.132.875.875,0,0,0,.093-.116.961.961,0,0,0,.121-.18.856.856,0,0,0,.05-.153.866.866,0,0,0,.047-.144l1.654-12.4A2.005,2.005,0,0,1,43.627,32H47a2,2,0,0,1,0,4,1,1,0,0,0-.992.876L44.117,52H9.883L7.992,36.876A1,1,0,0,0,7,36ZM9.847,54h2.535l-2,4h-1.2Z"/></svg>
