<svg id="Capa_1" enable-background="new 0 0 511.75 511.75" height="512" viewBox="0 0 511.75 511.75" width="512" fill="#f7392d" xmlns="http://www.w3.org/2000/svg"><g><path d="m473.203 57.201c4.142 0 7.5-3.358 7.5-7.5v-31.211c0-10.195-8.294-18.49-18.49-18.49h-412.676c-10.196 0-18.49 8.294-18.49 18.49v483.364c0 5.457 4.439 9.896 9.896 9.896h21.019c5.105 0 9.798-2.989 11.956-7.614l3.457-7.408h357.701l2.691 6.729c2.015 5.038 6.824 8.293 12.25 8.293h20.79c5.457 0 9.896-4.439 9.896-9.896v-420.653c0-4.142-3.358-7.5-7.5-7.5s-7.5 3.358-7.5 7.5v368.478h-94.165v-434.679h90.675c1.924 0 3.49 1.565 3.49 3.49v31.211c0 4.142 3.358 7.5 7.5 7.5zm-427.156-38.711c0-1.924 1.566-3.49 3.49-3.49h89.673v410.539c0 4.142 3.358 7.5 7.5 7.5s7.5-3.358 7.5-7.5v-410.539h94.165v434.679h-202.328zm419.656 478.26h-14.463l-2.691-6.729c-2.015-5.038-6.824-8.293-12.25-8.293h-360.075c-5.104 0-9.797 2.988-11.956 7.614l-3.458 7.409h-14.763v-32.071h419.656zm-109.165-47.071h-93.163v-434.679h93.163z"/><path d="m117.666 216.583c-4.142 0-7.5 3.358-7.5 7.5v16.513c0 4.142 3.358 7.5 7.5 7.5s7.5-3.358 7.5-7.5v-16.513c0-4.142-3.358-7.5-7.5-7.5z"/><path d="m177.757 216.583c-4.142 0-7.5 3.358-7.5 7.5v16.513c0 4.142 3.358 7.5 7.5 7.5s7.5-3.358 7.5-7.5v-16.513c0-4.142-3.358-7.5-7.5-7.5z"/><path d="m335.996 248.096c4.142 0 7.5-3.358 7.5-7.5v-16.513c0-4.142-3.358-7.5-7.5-7.5s-7.5 3.358-7.5 7.5v16.513c0 4.142 3.358 7.5 7.5 7.5z"/><path d="m383.579 224.083v16.513c0 4.142 3.358 7.5 7.5 7.5s7.5-3.358 7.5-7.5v-16.513c0-4.142-3.358-7.5-7.5-7.5s-7.5 3.358-7.5 7.5z"/></g></svg>