<svg fill="#fff" version="1.1" id="Capa_1" xmlns="http://www.w3.org/2000/svg" xmlns:xlink="http://www.w3.org/1999/xlink" x="0px" y="0px"
	 width="228.231px" height="228.231px" viewBox="0 0 228.231 228.231" style="enable-background:new 0 0 228.231 228.231;"
	 xml:space="preserve">
<g>
	<g>
		<path d="M154.791,189.627l13.788,13.791c0.663,0.667,1.561,1.026,2.478,1.026c0.301,0,0.605-0.037,0.906-0.116l18.836-5.048
			c1.212-0.324,2.152-1.27,2.478-2.478l5.048-18.839c0.325-1.208-0.021-2.498-0.907-3.385l-13.791-13.787
			c-0.887-0.887-2.17-1.236-3.385-0.907l-18.842,5.041c-1.209,0.321-2.156,1.266-2.479,2.478l-5.037,18.836
			c-0.082,0.301-0.119,0.608-0.119,0.917C153.765,188.07,154.127,188.959,154.791,189.627z M191.031,178.101l-4,14.932
			l-14.931,4.004l-10.928-10.935l3.997-14.924l14.935-4L191.031,178.101z"/>
		<path d="M94.64,137.159c-1.371-1.372-3.585-1.372-4.956,0l-48.993,48.988c-1.371,1.369-1.371,3.586,0,4.955
			c0.683,0.685,1.581,1.026,2.478,1.026s1.795-0.342,2.478-1.026l48.994-48.988C96.01,140.746,96.01,138.528,94.64,137.159z"/>
		<path d="M84.726,127.248c-1.369-1.372-3.585-1.372-4.956,0l-48.997,48.988c-1.371,1.373-1.371,3.587,0,4.956
			c0.685,0.685,1.581,1.026,2.478,1.026s1.795-0.342,2.478-1.026l48.997-48.988C86.093,130.834,86.093,128.617,84.726,127.248z"/>
		<path d="M98.357,145.833l-48.993,48.985c-1.371,1.372-1.371,3.586,0,4.955c0.683,0.685,1.581,1.026,2.478,1.026
			s1.793-0.342,2.478-1.026l48.994-48.985c1.371-1.368,1.371-3.586,0-4.955C101.942,144.465,99.729,144.465,98.357,145.833z"/>
		<path d="M198.707,47.611c4.206,0,8.169-1.639,11.136-4.603c0.78-0.773,1.485-1.663,2.143-2.707l15.51-19.931
			c1.084-1.396,0.958-3.381-0.288-4.63L214.815,3.349c-1.252-1.249-3.237-1.372-4.63-0.291l-19.931,15.506
			c-1.017,0.643-1.896,1.338-2.697,2.128c-2.98,2.977-4.616,6.937-4.616,11.149c0,3.015,0.873,5.886,2.44,8.377l-61.268,61.267
			l-16.113-16.111c-0.508-0.51-1.17-0.756-1.864-0.873L85.307,63.671C90.522,48.018,86.45,30.5,74.791,18.844
			c-8.27-8.268-19.271-12.826-30.964-12.826c-5.722,0-11.305,1.095-16.582,3.248c-1.086,0.441-1.879,1.4-2.113,2.549
			c-0.231,1.15,0.13,2.341,0.957,3.173l20.22,20.218l-0.862,16.242l-16.238,0.859L8.988,32.088C8.156,31.26,6.972,30.9,5.815,31.13
			c-1.151,0.233-2.108,1.027-2.551,2.115c-6.682,16.382-2.919,35.046,9.585,47.548c8.243,8.244,19.21,12.781,30.887,12.781
			c4.759,0,9.417-0.801,13.908-2.299l19.754,19.756l-55.911,55.918c-5.628,5.622-8.73,13.1-8.73,21.063
			c0,7.956,3.102,15.434,8.73,21.06c5.625,5.623,13.104,8.724,21.062,8.724c7.958,0,15.436-3.101,21.057-8.724l55.917-55.914
			l15.067,15.067c-5.239,15.697-1.239,33.071,10.547,44.857c8.265,8.269,19.267,12.826,30.971,12.826s22.702-4.558,30.978-12.829
			c17.08-17.077,17.076-44.872-0.004-61.951c-8.271-8.269-19.27-12.827-30.967-12.827c-4.801,0-9.469,0.808-13.894,2.283
			l-16.133-16.129c-0.116-0.698-0.376-1.379-0.917-1.916l-16.102-16.102l61.264-61.267
			C192.828,46.738,195.696,47.611,198.707,47.611z M17.805,75.833C8.603,66.635,5.039,53.459,8.069,41.082l17.287,17.285
			c0.705,0.702,1.668,1.078,2.665,1.023l20.943-1.116c1.788-0.092,3.219-1.523,3.312-3.309l1.114-20.947
			c0.053-0.992-0.318-1.961-1.023-2.662L35.083,14.07c2.846-0.695,5.771-1.043,8.744-1.043c9.827,0,19.06,3.829,26.008,10.772
			c9.943,9.938,13.331,24.961,8.633,38.28c-0.067,0.192-0.147,0.37-0.226,0.551l-0.272,0.65c-1.886,4.819-4.624,9.048-8.138,12.563
			c-3.23,3.234-7.036,5.814-11.37,7.7c-0.229,0.106-0.463,0.192-0.698,0.277l-0.462,0.182c-4.332,1.704-8.897,2.566-13.565,2.566
			C33.936,86.565,24.725,82.753,17.805,75.833z M64.755,88.256c1.656-0.896,3.224-1.913,4.742-3.008
			c0.342-0.247,0.676-0.5,1.008-0.756c1.5-1.15,2.948-2.358,4.286-3.699c1.34-1.342,2.548-2.793,3.694-4.295
			c0.304-0.4,0.595-0.808,0.886-1.222c0.917-1.297,1.769-2.646,2.548-4.056c0.122-0.222,0.281-0.414,0.398-0.633l17.765,17.761
			l-7.633,7.635c-1.371,1.369-1.371,3.583,0,4.955c0.683,0.681,1.194,1.472,1.535,2.313c1.023,2.532,0.511,5.544-1.535,7.59
			c-0.014,0.014-0.031,0.024-0.046,0.038c-0.406,0.394-0.864,0.719-1.345,1c-0.15,0.089-0.305,0.174-0.462,0.246
			c-0.397,0.195-0.813,0.349-1.244,0.462c-0.123,0.038-0.239,0.086-0.368,0.113L64.622,88.332
			C64.668,88.314,64.709,88.28,64.755,88.256z M58.65,204.117c-4.3,4.305-10.015,6.67-16.102,6.67
			c-6.088,0-11.806-2.372-16.106-6.67c-4.307-4.302-6.677-10.021-6.677-16.104c0-6.085,2.37-11.807,6.677-16.108l53.928-53.94
			c2.124,1.243,4.598,1.906,7.317,1.92c0.007,0,0.014,0.004,0.024,0.004c0.017,0,0.036,0,0.056,0c0.003,0,0.01,0,0.014,0
			c0,0,0,0,0.004,0c3.641-0.072,7.058-1.526,9.623-4.086c4.604-4.603,5.326-11.656,2.163-17.022l5.462-5.469l32.206,32.209
			l-5.462,5.458c-5.263-3.128-12.579-2.286-17.033,2.17c-2.555,2.563-4.008,5.979-4.081,9.623c0,0,0,0,0,0.004l0,0l0,0
			c-0.05,2.655,0.616,5.194,1.923,7.405L58.65,204.117z M202.123,156.083c14.346,14.349,14.349,37.691,0.003,52.041
			c-6.95,6.946-16.19,10.775-26.021,10.775c-9.832,0-19.068-3.825-26.016-10.772c-10.253-10.253-13.511-25.536-8.381-39.074
			c0.096-0.168,0.178-0.346,0.243-0.534c0.051-0.14,0.112-0.28,0.171-0.421c0.055-0.119,0.103-0.246,0.157-0.373l0.141-0.335
			l0.112-0.268c1.865-4.175,4.404-7.884,7.546-11.025c6.954-6.947,16.194-10.78,26.029-10.78
			C185.936,145.307,195.172,149.136,202.123,156.083z M145.644,149.776c-3.323,3.319-6.064,7.177-8.155,11.438l-19.657-19.65
			c0.004-0.017,0.011-0.027,0.014-0.045c0.131-0.567,0.343-1.104,0.603-1.625c0.062-0.12,0.123-0.232,0.191-0.349
			c0.298-0.518,0.644-1.007,1.068-1.435c2.655-2.652,7.265-2.646,9.91,0c1.372,1.369,3.587,1.369,4.955,0l7.636-7.631l12.415,12.415
			C151.327,144.793,148.319,147.096,145.644,149.776z M192.503,25.661c0.448-0.445,0.972-0.849,1.599-1.239
			c0.105-0.065,0.212-0.137,0.312-0.216l17.634-13.719l8.019,8.018l-13.72,17.635c-0.079,0.099-0.15,0.205-0.219,0.314
			c-0.391,0.637-0.791,1.153-1.226,1.584c-3.312,3.306-9.075,3.306-12.388,0c-1.657-1.66-2.563-3.857-2.563-6.197
			C189.95,29.501,190.856,27.307,192.503,25.661z"/>
	</g>
</g>
<g>
</g>
<g>
</g>
<g>
</g>
<g>
</g>
<g>
</g>
<g>
</g>
<g>
</g>
<g>
</g>
<g>
</g>
<g>
</g>
<g>
</g>
<g>
</g>
<g>
</g>
<g>
</g>
<g>
</g>
</svg>
